<?xml version="1.0" standalone="no"?>
<!DOCTYPE svg PUBLIC "-//W3C//DTD SVG 20010904//EN"
 "http://www.w3.org/TR/2001/REC-SVG-20010904/DTD/svg10.dtd">
<svg version="1.0" xmlns="http://www.w3.org/2000/svg"
 width="397.000000pt" height="95.000000pt" viewBox="0 0 397.000000 95.000000"
 preserveAspectRatio="xMidYMid meet">

<g transform="translate(0.000000,95.000000) scale(0.100000,-0.100000)"
fill="#000000" stroke="none">
<path d="M125 857 c-47 -18 -71 -39 -97 -82 -22 -38 -23 -52 -26 -231 -4 -209
3 -255 44 -304 49 -57 62 -60 304 -60 242 0 255 3 303 60 15 17 31 47 37 68
14 52 12 398 -4 440 -16 46 -72 100 -115 112 -51 14 -408 12 -446 -3z m118
-140 c16 -11 17 -32 15 -196 -3 -162 -5 -185 -21 -195 -12 -8 -22 -8 -35 0
-15 10 -17 32 -20 192 -2 154 0 182 13 196 20 19 26 20 48 3z m287 -66 c13
-26 13 -286 0 -312 -12 -21 -40 -25 -58 -7 -17 17 -17 309 0 326 18 18 46 14
58 -7z m-141 -85 c8 -9 11 -51 9 -121 -3 -90 -6 -110 -20 -119 -13 -8 -23 -8
-35 0 -15 9 -18 29 -21 119 -3 111 4 135 38 135 10 0 23 -6 29 -14z"/>
<path d="M1687 683 c-4 -3 -7 -93 -7 -200 l0 -193 40 0 40 0 0 44 c0 28 6 48
16 57 14 12 20 9 41 -16 13 -17 31 -42 41 -57 14 -24 23 -28 59 -28 24 0 43 2
43 5 0 3 -25 39 -57 81 l-56 75 29 32 c16 18 40 44 53 60 l24 27 -44 0 c-41
-1 -47 -5 -96 -61 l-53 -60 0 121 0 120 -33 0 c-19 0 -37 -3 -40 -7z"/>
<path d="M780 630 c0 -29 1 -30 50 -30 l50 0 0 -155 0 -155 40 0 40 0 0 155 0
155 50 0 c49 0 50 1 50 30 l0 30 -140 0 -140 0 0 -30z"/>
<path d="M2010 475 l0 -185 35 0 35 0 1 143 1 142 18 -55 c11 -30 31 -94 45
-142 l26 -88 38 0 38 0 46 143 45 142 1 -142 1 -143 35 0 35 0 0 185 0 185
-53 0 -53 0 -44 -135 c-24 -74 -47 -135 -50 -135 -3 0 -23 60 -45 133 l-41
132 -57 3 -57 3 0 -186z"/>
<path d="M3105 617 c-8 -12 -15 -26 -15 -33 0 -6 -11 -16 -25 -22 -29 -14 -33
-42 -6 -42 17 0 19 -9 23 -94 4 -121 16 -138 97 -134 52 3 56 5 59 30 3 24 0
27 -35 30 l-38 3 -3 83 -3 82 41 0 c36 0 40 2 40 25 0 22 -4 25 -39 25 -37 0
-40 2 -43 32 -4 38 -31 46 -53 15z"/>
<path d="M1153 569 c-37 -11 -37 -10 -22 -43 10 -21 15 -23 36 -15 34 13 77
11 91 -3 25 -25 12 -36 -50 -43 -50 -6 -68 -13 -91 -37 -25 -24 -29 -34 -24
-65 9 -54 32 -73 87 -73 32 0 55 6 73 20 l26 20 6 -20 c4 -14 15 -20 36 -20
l29 0 0 93 c0 125 -12 165 -55 183 -38 16 -94 17 -142 3z m117 -169 c0 -43
-60 -76 -88 -48 -29 29 2 68 54 68 27 0 34 -4 34 -20z"/>
<path d="M1455 568 c-31 -17 -45 -39 -45 -73 0 -37 16 -53 88 -89 55 -28 61
-36 37 -56 -14 -12 -48 -10 -102 6 -20 6 -23 3 -23 -24 0 -37 15 -43 97 -43
67 0 106 23 111 66 7 54 -6 74 -68 105 -65 33 -79 60 -31 60 16 0 41 -4 54 -9
21 -8 26 -6 36 15 15 33 16 30 -20 43 -40 14 -108 14 -134 -1z"/>
<path d="M2540 569 c-33 -13 -32 -13 -19 -42 10 -22 15 -24 36 -16 34 13 77
11 91 -3 24 -24 12 -36 -45 -43 -90 -11 -122 -35 -123 -91 0 -17 9 -43 21 -58
17 -21 29 -26 68 -26 27 0 56 7 70 16 22 16 24 16 33 0 5 -9 20 -16 33 -16
l25 0 0 118 c0 114 -1 119 -25 142 -19 18 -39 24 -83 27 -31 1 -68 -2 -82 -8z
m120 -169 c0 -43 -60 -76 -88 -48 -29 29 2 68 54 68 27 0 34 -4 34 -20z"/>
<path d="M2845 568 c-31 -17 -45 -39 -45 -73 0 -37 25 -63 87 -89 47 -21 59
-39 37 -57 -13 -11 -70 -8 -108 7 -13 5 -16 -1 -16 -25 0 -24 5 -32 23 -36
112 -25 187 6 187 77 0 45 -9 56 -76 92 -31 17 -57 36 -56 41 2 14 49 18 82 7
26 -10 29 -8 39 18 9 26 7 29 -21 39 -40 14 -107 14 -133 -1z"/>
<path d="M3352 565 c-67 -29 -92 -158 -44 -225 34 -46 107 -64 190 -45 27 6
32 11 32 37 0 27 -3 30 -22 24 -74 -20 -96 -19 -122 7 -14 15 -26 31 -26 37 0
6 34 10 90 10 l90 0 0 48 c0 27 -7 57 -16 70 -34 49 -107 65 -172 37z m106
-57 c7 -7 12 -20 12 -30 0 -15 -8 -18 -49 -18 -57 0 -66 8 -45 38 17 24 62 30
82 10z"/>
<path d="M3718 564 c-16 -8 -28 -19 -28 -24 0 -6 -4 -10 -10 -10 -5 0 -10 9
-10 20 0 16 -7 20 -30 20 l-30 0 0 -140 0 -140 34 0 34 0 4 89 c5 102 14 118
69 127 36 6 39 9 39 40 0 29 -4 34 -22 34 -13 -1 -35 -8 -50 -16z"/>
</g>
</svg>
